<?xml version="1.0" standalone="no"?>
<!DOCTYPE svg PUBLIC "-//W3C//DTD SVG 20010904//EN"
 "http://www.w3.org/TR/2001/REC-SVG-20010904/DTD/svg10.dtd">
<svg version="1.0" xmlns="http://www.w3.org/2000/svg"
 width="96.000000pt" height="96.000000pt" viewBox="0 0 96.000000 96.000000"
 preserveAspectRatio="xMidYMid meet">
<metadata>
Created by potrace 1.14, written by Peter Selinger 2001-2017
</metadata>
<g transform="translate(0.000000,96.000000) scale(0.100000,-0.100000)"
fill="#000000" stroke="none">
<path d="M300 754 c0 -4 39 -47 87 -95 l87 -89 93 0 c51 0 93 3 93 7 0 4 -39
47 -87 95 l-88 88 -92 0 c-51 0 -93 -3 -93 -6z"/>
<path d="M520 756 c0 -2 40 -46 89 -97 l89 -94 -202 -5 -203 -5 -38 -33 -37
-34 33 -34 33 -34 210 -2 210 -3 -92 -96 c-51 -53 -92 -99 -92 -103 0 -3 39
-6 88 -6 l87 0 100 103 c55 56 116 119 134 139 l34 37 -128 135 -128 136 -94
0 c-51 0 -93 -2 -93 -4z"/>
<path d="M135 620 l-129 -130 34 -37 c19 -21 80 -84 135 -140 l100 -103 87 0
c49 0 88 3 88 6 0 3 -55 64 -122 135 -68 72 -124 134 -126 138 -2 5 33 42 78
82 44 41 80 78 80 84 0 10 -80 95 -90 95 -3 0 -64 -58 -135 -130z"/>
<path d="M564 402 l-91 -3 -43 -44 -43 -44 49 -51 49 -50 94 94 c51 51 89 95
85 97 -5 2 -50 3 -100 1z"/>
</g>
</svg>
