<svg width="576" height="576" xmlns="http://www.w3.org/2000/svg" role="img" class="svg-inline--fa fa-edit fa-w-18" data-icon="edit" data-prefix="fas" focusable="false" aria-hidden="true">

 <g>
  <title>Layer 1</title>
  <path id="svg_1" d="m402.6,115.1l90.2,90.2c3.8,3.8 3.8,10 0,13.8l-218.4,218.4l-92.8,10.3c-12.4,1.4 -22.9,-9.1 -21.5,-21.5l10.3,-92.8l218.4,-218.4c3.8,-3.8 10,-3.8 13.8,0zm162,-22.9l-48.8,-48.8c-15.2,-15.2 -39.9,-15.2 -55.2,0l-35.4,35.4c-3.8,3.8 -3.8,10 0,13.8l90.2,90.2c3.8,3.8 10,3.8 13.8,0l35.4,-35.4c15.2,-15.3 15.2,-40 0,-55.2zm-180.6,285.9l0,101.8l-320,0l0,-320l229.8,0c3.2,0 6.2,-1.3 8.5,-3.5l40,-40c7.6,-7.6 2.2,-20.5 -8.5,-20.5l-285.8,0c-26.5,0 -48,21.5 -48,48l0,352c0,26.5 21.5,48 48,48l352,0c26.5,0 48,-21.5 48,-48l0,-157.8c0,-10.7 -12.9,-16 -20.5,-8.5l-40,40c-2.2,2.3 -3.5,5.3 -3.5,8.5z" fill="#999999"/>
 </g>
</svg>